<?xml version="1.0" encoding="utf-8"?>
<!-- Generator: Adobe Illustrator 23.0.1, SVG Export Plug-In . SVG Version: 6.00 Build 0)  -->
<svg version="1.1" id="Слой_1" xmlns="http://www.w3.org/2000/svg" xmlns:xlink="http://www.w3.org/1999/xlink" x="0px" y="0px"
	 viewBox="0 0 1000 1000" style="enable-background:new 0 0 1000 1000;" xml:space="preserve">
<style type="text/css">
	.st0{clip-path:url(#SVGID_2_);}
	.st1{clip-path:url(#SVGID_4_);fill:none;stroke:#000000;stroke-width:0.4545;stroke-miterlimit:10;}
	.st2{clip-path:url(#SVGID_4_);fill:#202020;}
	.st3{clip-path:url(#SVGID_4_);}
</style>
<g>
	<g>
		<defs>
			<rect id="SVGID_1_" width="1000" height="1000"/>
		</defs>
		<clipPath id="SVGID_2_">
			<use xlink:href="#SVGID_1_"  style="overflow:visible;"/>
		</clipPath>
		<g class="st0">
			<defs>
				<rect id="SVGID_3_" width="1000" height="1000"/>
			</defs>
			<clipPath id="SVGID_4_">
				<use xlink:href="#SVGID_3_"  style="overflow:visible;"/>
			</clipPath>
			<path class="st1" d="M282.32,295.76c0.24-0.12,0.47-0.23,0.7-0.34c0.14-0.06,0.27-0.13,0.4-0.2
				c8.18-4.09,12.73-12.73,12.73-12.73"/>
			<path class="st2" d="M110.51,389.91l-20.29,9.41h-5.45c-0.91,0-5,10-5,10s-13.18,6.82-14.09,7.73s0,15.45,0,15.45l-6.36,12.73
				l-12.73-1.36c-27.73-7.73-27.27-20-27.27-20l24.09-13.64l11.82-11.36l1.36-11.36l37.27-16.82l15.46-2.58L110.51,389.91z"/>
			<path class="st1" d="M110.51,389.91l-20.29,9.41h-5.45c-0.91,0-5,10-5,10s-13.18,6.82-14.09,7.73s0,15.45,0,15.45l-6.36,12.73
				l-12.73-1.36c-27.73-7.73-27.27-20-27.27-20l24.09-13.64l11.82-11.36l1.36-11.36l37.27-16.82l15.46-2.58L110.51,389.91z"/>
			<polygon class="st2" points="220.68,405.23 211.14,414.77 210.33,415.4 187.5,397.95 147.95,362.95 135.8,361.52 161.59,353.41 
				181.59,374.77 207.05,391.59 			"/>
			<polygon class="st1" points="220.68,405.23 211.14,414.77 210.33,415.4 187.5,397.95 147.95,362.95 135.8,361.52 161.59,353.41 
				181.59,374.77 207.05,391.59 			"/>
			<path class="st2" d="M505.69,708.37l-5.46,21.85l-30.45,30.91l-28.18,42.27l-11.82,2.27l-1.36,13.64l-5.91,2.27l-0.91,12.27
				l-7.73,1.82c-23.64,3.64-30.45-10-30.45-10l9.55-12.27v-5.91l34.09-26.82l28.18-33.18l9.55-27.27c0,0,0.91-20.91,0.91-21.36
				c0-0.45-15.45-34.55-15.45-34.55s-26.82-37.27-26.82-37.73s-6.36-12.73-6.36-12.73l-3.77-15.47c11.72-0.25,29.68-0.9,29.68-0.9
				l14.55,6.82l1.64,0.49l0.18,10.42l-0.91,34.09l1.36,8.64l11.36,12.73l32.73,35C503.86,705.68,504.57,706.73,505.69,708.37"/>
			<path class="st1" d="M505.69,708.37l-5.46,21.85l-30.45,30.91l-28.18,42.27l-11.82,2.27l-1.36,13.64l-5.91,2.27l-0.91,12.27
				l-7.73,1.82c-23.64,3.64-30.45-10-30.45-10l9.55-12.27v-5.91l34.09-26.82l28.18-33.18l9.55-27.27c0,0,0.91-20.91,0.91-21.36
				c0-0.45-15.45-34.55-15.45-34.55s-26.82-37.27-26.82-37.73s-6.36-12.73-6.36-12.73l-3.77-15.47c11.72-0.25,29.68-0.9,29.68-0.9
				l14.55,6.82l1.64,0.49l0.18,10.42l-0.91,34.09l1.36,8.64l11.36,12.73l32.73,35C503.86,705.68,504.57,706.73,505.69,708.37z"/>
			<polyline class="st3" points="372.5,377.95 379.77,370.68 390.23,370.68 			"/>
			<path class="st3" d="M581.59,569.77l-4.55,27.73l-15.91,25l-20.91,15.91l-11.36,22.27l30,69.55l-1.36,20.91l-23.18,33.64
				l-23.64,50c0,0-10.91,4.55-11.36,4.55c-0.45,0-0.45,12.27-0.45,12.27l-3.18,5v10.91c0,0-6.82,8.18-23.18,6.82
				s-16.36-7.73-16.36-7.73l8.18-13.18v-5.91l22.27-20.45l5.91-10.91l21.82-35.45c0,0,5.91-22.73,5.91-23.64
				c0-0.91-0.91-27.73-0.91-28.18c0-0.36-9.54-14.46-13.63-20.49c-1.12-1.65-1.83-2.69-1.83-2.69l-32.73-35l-11.36-12.73l-1.36-8.64
				l0.91-34.09l-0.18-10.42l-1.64-0.49l-14.55-6.82c0,0-17.96,0.64-29.68,0.9c-5.37,0.12-9.44,0.16-9.86,0.01
				c-1.36-0.45-13.18-1.36-13.18-1.36l-38.18-9.09l-33.64-7.73l-25.91-13.18l-13.18-15l-51.82-44.09h-5.45l-9.09-1.36l-4.55-4.55
				l-30.91-53.64l-43.18-51.36l-2.73,25l-6.82,22.27l0.45,9.55l11.36,17.73l-0.91,6.82l2.73,3.64l9.55-3.64l11.36,11.36v11.82
				c-2.73,28.18-12.73,26.36-12.73,26.36l-16.36-15.45l-20.91-17.27l-2.73-11.36l-5-6.82l-2.73-8.64l4.55-19.09l7.27-56.36
				l-0.17-3.05l-1.19-21.8l-0.01-0.15l15.45-7.73l11.02,1.3l12.16,1.43l39.55,35l22.83,17.44l0.81-0.62l12.27-12.27
				c0-0.45,5-9.55,5-9.55l24.09-18.64l25-41.82l4.82-36.74c-9,4.33-30.73,13.1-30.73,13.1l-17.27,10l-9.09,1.82l-14.55,15.91
				l-12.27-1.82l-13.64-12.27v-5l-3.18-8.64l1.82-8.18l37.27-54.09l0.91-8.18l4.55-6.36l1.82-0.91c0,0,2.73-11.82,2.73-12.27
				s15-26.36,15-26.36l2.73-1.36l0.45-19.09l1.82-0.91c0,0,3.18,6.36,3.64,6.82s4.2,9.41,4.2,9.41l0.8-0.32l24.55-0.45l29.09,6.36
				l28.64,17.73l23.18,30l14.55,50l3.18,58.18l7.73,21.82h12.27l33.18-12.73l36.36-30.91l5-16.82l-12.27-14.55l-18.18-18.64
				l-1.82-21.82l10.45-23.64l15-19.55l35.45-20.91l5,0.91l-1.82,5.45l-15,12.27l8.18,6.82l-0.45,8.64l-7.27,6.82l-16.82-4.55
				l7.73,9.55v5.91l-8.18,4.55l-12.73,0.45l15.45,4.55l9.09,7.73l-4.09,7.27l-3.18,3.64v0.91l6.36,4.55l3.18,5.45l-1.82,6.36
				l-3.64,3.18l4.09,11.36l12.27,12.73l3.18,10.91l-8.18,8.18l-5.91-0.91l-4.09,7.27l1.82,8.64l-5,3.64l-5.91-1.36l3.18,12.27
				l-3.18,4.55l-10.45,2.27l-9.55-5l-12.27,6.82l-15.91,6.36l-26.36,12.27l-7.27,9.09l0.2,4.81c0.92,1.15,1.62,2.01,1.62,2.01
				l15,15.45l20.45,28.18l14.09,7.27l50.91,20.91l53.18,38.18l21.82,27.73L581.59,569.77z"/>
			<polyline class="st1" points="459.14,604.81 458.41,562.95 464.77,547.95 			"/>
			<polygon class="st3" points="510.68,189.77 515.68,190.68 512.05,197.95 538.41,198.86 549.32,189.77 550.23,183.86 			"/>
			<path class="st3" d="M509.32,200.68l-10.91,8.64l8.18,6.82l10,0.45l7.27-7.27c0,0-3.64-7.73-4.09-7.73
				C519.32,201.59,509.32,200.68,509.32,200.68"/>
			<path class="st3" d="M505.68,218.86l-1.36,6.82c0,0,14.09,4.09,14.55,4.09s10.91-6.36,10.91-6.36v-7.73l-4.09-3.18l-6.36,6.36
				H505.68z"/>
			<path class="st3" d="M502.95,228.41l-7.27,6.36l-7.73-1.82l1.82,4.09c0,0,11.82,11.82,12.27,11.82c0.45,0,11.36,0.45,11.36,0.45
				l-0.45-15L502.95,228.41z"/>
			<path class="st3" d="M502.95,253.86v5h-10l-10-8.18c0,0-5.45-0.91-5-0.91c0.45,0,8.64-3.64,8.64-3.64l1.82-5.91L502.95,253.86z"
				/>
			<polygon class="st3" points="491.59,261.59 487.05,269.77 485.23,271.14 490.23,274.77 494.77,280.23 508.41,280.23 
				508.41,271.59 500.68,262.05 			"/>
			<polygon class="st3" points="493.86,284.77 492.5,289.32 489.77,292.5 492.05,299.77 504.32,312.95 512.5,311.59 514.32,297.95 
				507.5,289.32 			"/>
			<polygon class="st3" points="512.95,275.23 519.77,282.95 520.68,291.14 518.41,294.32 515.23,294.32 510.68,288.41 
				498.41,283.86 510.68,283.41 511.59,274.32 			"/>
			<path class="st3" d="M506.59,252.5v6.82l-3.18,2.27l7.27,8.64c0,0,2.73,0.91,2.73,1.36c0,0.45,4.55,4.55,4.55,4.55l16.36,0.45
				v-10.91l-6.82-6.82c0,0-10-7.27-10.45-7.27C516.59,251.59,506.59,252.5,506.59,252.5"/>
			<path class="st3" d="M517.05,245.68c0,0,15.45,13.64,15.91,13.64c0.45,0,15.45,2.27,15.45,1.82v-10.45l-24.09-20.45l-4.55,3.18
				l-4.09-1.36L517.05,245.68z"/>
			<polygon class="st3" points="525.23,201.59 539.77,202.05 542.05,202.05 543.41,206.59 538.86,213.41 535.68,215.23 
				527.05,209.77 524.77,201.59 			"/>
			<path class="st3" d="M554.77,183.41l-0.45,6.82l-10,8.64l4.09,1.36c0,0,18.18,0.45,18.64,0c0.45-0.45,13.18-5.91,13.18-5.91
				l4.55-10.45l-2.73-2.73L554.77,183.41z"/>
			<path class="st3" d="M546.59,204.32l0.45,2.73l-4.09,7.27l-5.45,3.64c0,0,19.55,11.36,20.45,11.36c0.91,0,19.09-0.45,19.09-0.45
				l0.91-9.55c0,0-25-17.27-25.45-17.27S546.59,204.32,546.59,204.32"/>
			<path class="st3" d="M527.95,229.32c0,0,23.18,19.55,23.64,19.55c0.45,0,13.18,0.45,13.18,0.45s2.27-10,1.82-10
				c-0.45,0-32.27-20-32.27-20l-0.91,5.45L527.95,229.32z"/>
			<path class="st3" d="M589.77,184.32c0,0,29.55,0.91,30.45,0.91c0.91,0,8.64,7.27,8.64,7.27l-4.09,7.73l-6.36,3.64l-25-1.82
				l-8.64,0.45l-7.73-1.82l7.27-3.64L589.77,184.32z"/>
			<polygon class="st3" points="630.68,186.59 637.5,191.59 630.68,203.86 623.86,205.23 631.59,208.41 677.5,208.41 687.05,200.23 
				687.95,190.68 653.41,186.59 			"/>
			<path class="st3" d="M693.86,192.5l-0.91,9.55c0,0-5,4.09-5,4.55s35.45,13.64,35.45,13.64l11.82-4.09l1.82-5l-1.82-8.18l-15-6.36
				L693.86,192.5z"/>
			<path class="st3" d="M743.41,199.32l127.27,24.09l73.18,19.55l40.45,20.91l3.18,7.73l-22.27,5.45l-61.36-5.91l-67.73-12.73
				l-93.18-26.36c0,0-13.18-7.73-12.73-7.73c0.45,0,10-4.09,10-4.09l3.18-7.27l-2.73-9.55c0,0-5.45-5-4.55-5
				C737.05,198.41,743.41,199.32,743.41,199.32"/>
			<path class="st3" d="M567.5,206.14c0.45,0,14.55,10.45,14.55,10.45l32.73,12.73l35,0.45l6.82-7.73l-10.91-9.55l-21.82-2.73
				l-5.45-2.27c0,0-25-2.27-25.45-2.27c-0.45,0-8.64,1.36-8.64,1.36l-11.36-2.73L567.5,206.14z"/>
			<path class="st3" d="M582.95,222.5l-0.91,9.55c0,0,17.73,18.64,19.55,18.64c1.82,0,24.09,1.36,24.09,1.36l3.18-8.64l-10-10
				L582.95,222.5z"/>
			<path class="st3" d="M567.5,234.32l3.18,3.18l-2.27,11.36l23.18,19.09c0,0,9.09,0.91,9.55,0.91s4.55-3.18,4.55-3.18l-1.36-6.82
				l-26.36-25.45L567.5,234.32z"/>
			<path class="st3" d="M552.05,253.86v9.55l18.64,14.55c0,0,8.18,3.18,8.18,3.64c0,0.45,11.36-0.91,11.36-0.91l0.45-8.64
				l-23.64-19.55h-14.09L552.05,253.86z"/>
			<path class="st3" d="M537.5,263.86l-0.45,13.64l15,16.82c0,0,7.27,4.55,8.18,4.55c0.91,0,9.55-1.36,9.55-1.36l0.91-10.91
				l-5.45-8.64l-14.55-12.73l-13.64-2.27L537.5,263.86z"/>
			<polygon class="st3" points="522.95,278.86 533.41,279.32 552.05,297.95 556.59,309.77 554.32,315.68 541.59,316.59 
				522.95,291.59 522.95,282.95 520.68,279.32 			"/>
			<polygon class="st3" points="522.5,296.14 540.23,319.32 540.68,328.86 539.32,331.59 532.95,332.05 514.77,312.95 
				517.05,299.77 517.05,297.05 			"/>
			<path class="st3" d="M507.05,317.5l2.27,9.09l16.82,15.91l4.09-1.36c0,0,0.45-6.82,0-6.82c-0.45,0-18.18-18.18-18.18-18.18
				L507.05,317.5z"/>
			<polygon class="st3" points="507.5,330.23 499.32,338.86 497.05,337.95 512.05,355.68 520.23,356.59 525.68,351.59 
				525.68,346.59 507.5,329.32 			"/>
			<polygon class="st3" points="487.95,353.41 501.14,368.41 511.59,368.86 514.32,360.68 513.41,358.41 511.59,358.41 
				492.95,337.5 490.68,341.14 492.05,349.32 			"/>
			<polygon class="st3" points="480.68,371.59 491.59,383.86 499.77,382.05 501.59,373.41 486.14,356.14 482.05,355.23 
				484.77,364.77 			"/>
			<polygon class="st3" points="488.86,386.59 488.41,393.41 478.41,393.86 468.41,385.23 460.68,370.68 467.95,375.23 
				477.5,372.95 			"/>
			<polygon class="st3" points="467.5,389.77 467.05,397.05 460.68,397.05 459.32,390.23 449.32,374.32 456.59,369.77 			"/>
			<polygon class="st3" points="432.5,381.14 444.77,397.5 456.14,401.14 457.5,400.23 457.5,394.32 446.59,375.68 			"/>
			<polygon class="st3" points="429.77,382.95 442.5,398.86 440.68,406.14 431.59,408.41 415.68,390.23 			"/>
			<path class="st3" d="M413.86,420.23c0,0-14.09-14.09-14.09-14.55v-5l6.36-6.82l7.27-1.82l14.55,17.27v9.09l-6.82,2.73
				L413.86,420.23z"/>
			<polygon class="st3" points="417.05,424.32 433.86,447.05 450.68,454.32 455.23,447.5 451.14,443.86 431.59,418.86 
				422.05,423.86 			"/>
			<polygon class="st3" points="658.86,212.5 676.59,212.5 686.59,210.68 719.77,223.86 742.05,239.32 732.95,244.32 699.77,241.14 
				660.68,222.05 652.05,212.95 			"/>
			<path class="st3" d="M658.41,225.68l-6.36,7.27h-25.45l5.91,7.73c0,0,58.64,31.82,59.55,31.82c0.91,0,29.09,5,29.55,5
				c0.45,0,11.82-4.55,11.82-4.55l-3.18-11.36l-22.27-16.82h-9.55L658.41,225.68z"/>
			<polygon class="st3" points="632.5,245.68 689.32,275.68 705.23,288.86 703.86,298.41 697.05,301.59 670.23,292.05 
				627.95,256.59 			"/>
			<path class="st3" d="M606.14,254.77c0.45,0,14.55,0.45,14.55,0.45l53.18,45l-0.91,6.82l-5,2.73l-20.45-7.27l-39.09-40.45
				L606.14,254.77z"/>
			<path class="st3" d="M603.41,272.95c0.45,1.82,30.91,37.73,30.91,37.73l6.82,13.64l13.64,6.82l1.82-15l-6.82-9.55l-4.55-1.82
				l-36.82-39.09v2.27L603.41,272.95z"/>
			<polygon class="st3" points="595.23,274.32 600.68,275.23 632.05,314.32 639.77,329.32 637.95,342.95 633.41,346.14 
				623.86,334.77 602.5,299.77 590.23,284.77 594.77,282.95 			"/>
			<polygon class="st3" points="575.23,285.68 574.32,297.95 571.14,302.5 594.32,333.86 601.59,342.5 609.32,359.32 621.14,373.86 
				629.77,376.59 633.41,370.68 631.59,349.77 620.68,337.05 599.77,302.5 585.23,285.68 574.32,283.86 			"/>
			<polygon class="st3" points="547.05,322.05 560.68,340.68 591.59,384.77 602.05,394.32 611.14,394.32 618.86,384.32 
				619.32,379.77 604.32,361.59 597.05,346.14 565.68,304.77 560.68,302.5 562.5,311.59 560.23,318.41 			"/>
			<polygon class="st3" points="545.23,326.14 545.23,331.14 542.95,334.77 536.59,336.14 563.86,372.5 577.05,395.68 
				579.77,406.59 587.95,412.05 594.77,409.32 600.23,401.14 600.68,397.5 588.41,387.5 			"/>
			<path class="st3" d="M533.86,340.23v2.73l-4.09,2.27v5.45v5.91l16.82,29.55c0,0,20.91,35.91,21.36,35.91h8.64l2.73-9.55
				l-3.64-3.64l-1.82-10.91l-11.82-23.64L533.86,340.23z"/>
			<polygon class="st3" points="525.23,358.86 517.95,360.23 517.5,365.68 514.77,372.05 532.05,394.77 543.86,412.05 
				547.95,427.95 560.23,433.86 566.14,430.23 566.14,425.68 560.23,414.32 539.77,379.77 526.59,357.95 			"/>
			<polygon class="st3" points="506.14,373.86 504.32,382.05 503.41,385.68 492.95,387.05 502.05,397.95 520.23,426.14 
				523.41,433.41 538.41,439.32 544.32,437.5 547.05,431.59 543.86,427.95 541.14,413.41 512.05,373.41 			"/>
			<path class="st3" d="M492.05,392.5l-0.91,4.55l-9.55,0.45l0.91,4.09l15.45,29.09c0,0,14.55,16.36,15,16.36
				c0.45,0,9.55,0.45,9.55,0.45l1.82-9.09l-3.64-2.73l-3.64-8.64l-17.73-28.18l-7.73-9.09L492.05,392.5z"/>
			<path class="st3" d="M470.23,392.95l-1.36,7.27h-6.82c0,0-1.82,2.73-2.27,2.73c-0.45,0-7.73,0.45-7.73,0.45
				s19.09,32.27,19.55,32.73c0.45,0.45,18.64,17.73,18.64,17.73l6.36-0.91l2.27-16.36l-3.64-1.36l-16.82-32.27l-1.36-6.36
				l-6.82-5.91V392.95z"/>
			<path class="st3" d="M432.05,412.95l21.82,29.55l8.64,5.91l9.09-1.82l3.64-1.82c0,0-6.36-5.91-7.27-6.36
				c-0.91-0.45-18.64-33.18-18.64-33.18l-4.09-4.55l-0.91,5.91L432.05,412.95z"/>
			<polygon class="st3" points="753.41,239.77 737.05,247.95 719.32,246.59 735.68,260.23 736.59,270.23 853.41,309.77 
				923.41,326.14 960.23,329.32 970.68,323.86 939.77,297.5 882.95,275.68 862.5,268.41 842.95,265.23 			"/>
			<polygon class="st3" points="711.14,282.95 726.59,282.5 737.05,277.05 846.59,313.41 900.23,337.05 936.14,357.95 
				945.23,373.41 925.68,376.59 871.14,364.77 787.05,336.14 708.41,301.59 			"/>
			<path class="st3" d="M683.41,304.77l15.91,4.09l5.91-1.82l78.18,33.18l27.73,10c0,0,57.27,28.64,58.64,29.09
				c1.36,0.45,27.73,23.64,27.73,23.64l5,14.09h-22.73c0,0-35.91-10-39.55-10.91c-3.64-0.91-79.55-32.27-79.55-32.27l-27.27-12.73
				l-67.73-41.36l-3.18-5.45l10,1.36l5.45-4.55l3.18-7.27L683.41,304.77z"/>
			<path class="st3" d="M662.05,324.77l66.36,42.27l31.82,10.45l62.27,44.55c0,0,10.91,11.82,11.36,12.73s3.64,14.55,3.64,14.55
				l-33.18-4.09l-80.91-38.64l-18.64-10.45l-69.09-40v-5.91l6.82-5.45c0,0,1.36-11.36,1.82-11.36s13.18,5.91,13.18,5.91
				L662.05,324.77z"/>
			<path class="st3" d="M638.41,366.14v8.64l-4.09,6.36c0,0-7.73-0.45-7.73,0c0,0.45-5.45,10-5.45,10l32.73,30.91l46.82,28.64
				l37.73,6.82l-1.82-26.36c0,0-15-20.91-15.45-20.91S638.41,366.14,638.41,366.14"/>
			<path class="st3" d="M604.32,410.23v-9.09c0,0,15.45-5.91,15.91-5.91c0.45,0,30,30,30,30l48.64,28.18l-2.27,8.18l-15.91,8.18
				l-21.82-2.73l-25.45-17.73L604.32,410.23z"/>
			<polygon class="st3" points="585.23,415.23 591.14,417.05 597.95,411.14 600.68,411.59 627.95,450.23 655.23,469.32 
				662.5,470.68 662.5,475.68 655.23,481.59 633.86,483.41 616.14,472.5 597.95,452.95 580.23,422.95 583.86,413.41 			"/>
			<path class="st3" d="M577.5,425.23h-7.73l-0.91,5.91l-6.36,5.45l10.91,17.73c0,0,15.91,18.64,16.36,19.09
				c0.45,0.45,24.09,10.91,24.09,10.91l6.82-0.91v-4.09l-7.73-5.45l-17.27-18.18l-17.27-30.45H577.5z"/>
			<path class="st3" d="M539.77,442.5l6.82-1.36l3.64-6.82h2.73l5,2.27l11.82,18.64l17.27,19.09l9.55,5l-0.91,5.91h-8.64
				l-22.27-10.91c0,0-15.45-16.82-15.91-17.27C548.41,456.59,539.77,442.5,539.77,442.5"/>
			<path class="st3" d="M527.95,440.68l-1.82,7.73l-2.27,3.18l-11.82-1.36l-3.64,0.45l3.64,9.55l15.91,16.82
				c0,0,25,12.27,25.45,12.27c0.45,0,10,0.91,10,0.91l3.18-4.55l-1.36-7.73l-20.45-19.55l-9.09-16.36L527.95,440.68z"/>
			<path class="st3" d="M493.41,458.86l6.36-0.91l2.73-10.91c0,0,7.27,15.91,7.27,16.36c0,0.45,14.09,15.91,14.09,15.91l15.45,5.91
				l0.45,5.91l-11.36,3.18l-9.09-4.55c-0.91-0.45-8.64-7.73-8.64-7.73L493.41,458.86z"/>
			<path class="st3" d="M453.86,456.14l13.64,5.91c0,0,15.45,6.82,15.91,6.82c0.45,0,12.73,4.55,13.18,5
				c0.45,0.45,7.73,6.82,7.73,6.82l-14.09-20.91l-2.73-3.64l-10.91-8.64l-7.27,4.09l-5.45-0.45L453.86,456.14z"/>
			<path class="st3" d="M232.5,211.14c-0.91,0-7.27,3.18-7.27,3.18s-14.55-0.91-14.09-0.45s12.73-4.55,12.73-4.55
				s6.82-5.91,6.36-5.91c-0.45,0-9.09,0.91-9.09,0.91l-3.64-3.18l6.82-0.91l3.18-5.91l-1.82-11.82l4.09,10l9.55-4.55l0.91-3.64
				h-7.27l3.64-3.18l5.91,1.36l-2.73-5c0,0,4.55,0.45,5,1.36c0.45,0.91,1.82,2.73,1.82,2.73l-0.45,3.64l-0.45,4.55l-3.18,2.27
				L232.5,211.14z"/>
			<path class="st3" d="M260.91,183.64l-2.27-5l3.64-4.09l-5-5.45h8.18l5-1.36c0,0-7.27-4.09-6.82-4.09
				c0.45,0,16.36,3.64,16.36,3.64l5.45-4.55l4.55-9.55c0,0-0.91,4.55,0,4.55s3.18-2.27,3.18-2.27s-0.45,10,0.45,10
				s8.18-7.27,8.18-7.27V165c0,0,11.82,0.45,14.09,1.36s10,7.27,10,7.27L320,160.45l12.73,16.82c0,0,0-4.55,0.45-4.55
				c0.45,0,8.64,13.18,8.64,13.18l6.36-0.45l-2.73-11.36l4.55,6.36c0,0,1.82,5.45,2.27,5.45h19.09l-16.82,5.91
				c0,0,13.18,1.36,14.09,1.36s5.45,3.18,5.45,3.18l4.09-0.45l1.36,0.91l-4.09,4.55l-6.36,0.45l7.73,6.82l-7.27,4.55l-7.27-0.45l5,5
				c0,0,11.82-0.91,12.27-0.91c0.45,0-8.64,5.91-8.64,6.36s2.73,5,2.73,5l13.18-3.64l-4.09,6.82l8.18-1.36c0,0-5.45,6.82-5.45,6.36
				s9.55-7.27,9.55-7.27v5l9.09,2.27l0.91,2.27l-10.45,0.45l-10.45,10l13.18-1.82l0.91-3.64l4.55,3.64l5.45,0.45l8.18,9.55
				l-8.18-2.73l4.09,12.73c0,0-9.55-16.82-10-16.36c-0.45,0.45-8.18,6.36-8.18,6.36l14.55,20.91l-11.82-6.82l14.09,20l2.73,21.82
				L405,291.36l-10-8.64l-0.45,9.55l6.36,8.18l4.09,2.27l3.18,0.91l0.45,1.82l-3.18,0.91l8.64,10.91l-10.45-8.18l8.64,13.64
				l-13.18-8.64l8.18,10.91l-13.64-7.73l4.55,5.91l10,5.45l5.91,8.18l-10.91-5.45l-4.55-0.45l9.55,9.55l8.18,10.91l1.82,6.36
				l-13.64-15.45l-8.64-4.09l0.45,5l11.36,13.64l4.09,3.18l0.91,2.27l-10,5l-10,0.91l-6.82-19.09l-3.18-57.73l-14.55-52.27
				l-24.55-30.45l-28.18-17.27l-30.91-8.18l-23.64,1.36V183.64z"/>
			<path class="st3" d="M572.05,532.95l19.55-9.09l19.09,1.36l20.91,20.91l1.36,13.64l4.09,20.45v23.64l2.27,40
				c0,0,0.91,46.36,0.91,44.55c0-1.82-5.45-59.55-5.45-59.55s-3.18,27.73-2.73,28.64c0.45,0.91,3.18,26.36,3.18,26.36
				s11.36,27.73,11.82,28.18c0.45,0.45-12.73-14.55-12.73-14.55l5.45,24.09l10.45,13.64l-10-6.36l14.09,30.91l-12.27-12.27
				c0,0,12.73,21.82,12.27,22.73c-0.45,0.91-0.91,20.91-0.91,20.91s-5.91,8.64-5.91,9.09c0,0.45-1.82,15.91-1.82,15
				c0-0.91-7.27-14.09-7.27-14.09s-4.55,18.64-5,17.73c-0.45-0.91-6.36-8.18-6.36-8.18l-1.36-8.18l-2.73,7.73l-3.18-6.82l-4.55,9.55
				l-5.45-7.73l0.45-20.91l-4.55,21.82l-6.36-55.91l-1.82,28.64l-3.18-38.18l-4.09,14.09l1.36-30.45l-5-24.09l-4.09,11.36
				l2.73-33.18l-7.27,12.27c0,0,10.91-38.64,10.91-39.55c0-0.91-0.45-23.64-0.45-23.64l-10,47.73l10-60l1.36-12.27l6.36-18.18
				l0.91-20.91l-1.82-4.09l-11.82-6.82h-2.27l-2.27-8.18l-7.73-11.82H572.05z"/>
			<path class="st1" d="M572.05,532.95l19.55-9.09l19.09,1.36l20.91,20.91l1.36,13.64l4.09,20.45v23.64l2.27,40
				c0,0,0.91,46.36,0.91,44.55c0-1.82-5.45-59.55-5.45-59.55s-3.18,27.73-2.73,28.64c0.45,0.91,3.18,26.36,3.18,26.36
				s11.36,27.73,11.82,28.18c0.45,0.45-12.73-14.55-12.73-14.55l5.45,24.09l10.45,13.64l-10-6.36l14.09,30.91l-12.27-12.27
				c0,0,12.73,21.82,12.27,22.73c-0.45,0.91-0.91,20.91-0.91,20.91s-5.91,8.64-5.91,9.09c0,0.45-1.82,15.91-1.82,15
				c0-0.91-7.27-14.09-7.27-14.09s-4.55,18.64-5,17.73c-0.45-0.91-6.36-8.18-6.36-8.18l-1.36-8.18l-2.73,7.73l-3.18-6.82l-4.55,9.55
				l-5.45-7.73l0.45-20.91l-4.55,21.82l-6.36-55.91l-1.82,28.64l-3.18-38.18l-4.09,14.09l1.36-30.45l-5-24.09l-4.09,11.36
				l2.73-33.18l-7.27,12.27c0,0,10.91-38.64,10.91-39.55c0-0.91-0.45-23.64-0.45-23.64l-10,47.73l10-60l1.36-12.27l6.36-18.18
				l0.91-20.91l-1.82-4.09l-11.82-6.82h-2.27l-2.27-8.18l-7.73-11.82H572.05z"/>
		</g>
	</g>
</g>
</svg>
